HIERARCHY
ROOT Hips
{
	OFFSET 0.00000 0.00000 0.00000
	CHANNELS 6 Xposition Yposition Zposition Zrotation Yrotation Xrotation 
	JOINT LHipJoint
	{
		OFFSET 0 0 0
		CHANNELS 3 Zrotation Yrotation Xrotation
		JOINT LeftUpLeg
		{
			OFFSET 1.28366 -1.58472 0.87544
			CHANNELS 3 Zrotation Yrotation Xrotation
			JOINT LeftLeg
			{
				OFFSET 2.18587 -6.00562 0.00000
				CHANNELS 3 Zrotation Yrotation Xrotation
				JOINT LeftFoot
				{
					OFFSET 2.39085 -6.56880 0.00000
					CHANNELS 3 Zrotation Yrotation Xrotation
					JOINT LeftToeBase
					{
						OFFSET 0.12003 -0.32979 2.03101
						CHANNELS 3 Zrotation Yrotation Xrotation
						End Site
						{
							OFFSET 0.00000 -0.00000 1.04074
						}
					}
				}
			}
		}
	}
	JOINT RHipJoint
	{
		OFFSET 0 0 0
		CHANNELS 3 Zrotation Yrotation Xrotation
		JOINT RightUpLeg
		{
			OFFSET -1.21795 -1.58472 0.87544
			CHANNELS 3 Zrotation Yrotation Xrotation
			JOINT RightLeg
			{
				OFFSET -2.22714 -6.11902 0.00000
				CHANNELS 3 Zrotation Yrotation Xrotation
				JOINT RightFoot
				{
					OFFSET -2.40306 -6.60235 0.00000
					CHANNELS 3 Zrotation Yrotation Xrotation
					JOINT RightToeBase
					{
						OFFSET -0.15519 -0.42640 1.91430
						CHANNELS 3 Zrotation Yrotation Xrotation
						End Site
						{
							OFFSET -0.00000 -0.00000 0.99082
						}
					}
				}
			}
		}
	}
	JOINT LowerBack
	{
		OFFSET 0 0 0
		CHANNELS 3 Zrotation Yrotation Xrotation
		JOINT Spine
		{
			OFFSET 0.01180 1.76430 -0.06387
			CHANNELS 3 Zrotation Yrotation Xrotation
			JOINT Spine1
			{
				OFFSET -0.00388 1.74651 0.09536
				CHANNELS 3 Zrotation Yrotation Xrotation
				JOINT Neck
				{
					OFFSET 0 0 0
					CHANNELS 3 Zrotation Yrotation Xrotation
					JOINT Neck1
					{
						OFFSET 0.04111 1.46174 0.14397
						CHANNELS 3 Zrotation Yrotation Xrotation
						JOINT Head
						{
							OFFSET 0.00502 1.44580 -0.31711
							CHANNELS 3 Zrotation Yrotation Xrotation
							End Site
							{
								OFFSET -0.00395 1.49251 -0.12327
							}
						}
					}
				}
				JOINT LeftShoulder
				{
					OFFSET 0 0 0
					CHANNELS 3 Zrotation Yrotation Xrotation
					JOINT LeftArm
					{
						OFFSET 2.70917 1.34870 -0.15417
						CHANNELS 3 Zrotation Yrotation Xrotation
						JOINT LeftForeArm
						{
							OFFSET 4.46610 -0.00000 -0.00000
							CHANNELS 3 Zrotation Yrotation Xrotation
							JOINT LeftHand
							{
								OFFSET 3.41414 -0.00000 0.00000
								CHANNELS 3 Zrotation Yrotation Xrotation
								JOINT LeftFingerBase
								{
									OFFSET 0 0 0
									CHANNELS 3 Zrotation Yrotation Xrotation
									JOINT LeftHandIndex1
									{
										OFFSET 0.32830 -0.00000 0.00000
										CHANNELS 3 Zrotation Yrotation Xrotation
										End Site
										{
											OFFSET 0.26468 -0.00000 0.00000
										}
									}
								}
								JOINT LThumb
								{
									OFFSET 0 0 0
									CHANNELS 3 Zrotation Yrotation Xrotation
									End Site
									{
										OFFSET 0.26872 -0.00000 0.26872
									}
								}
							}
						}
					}
				}
				JOINT RightShoulder
				{
					OFFSET 0 0 0
					CHANNELS 3 Zrotation Yrotation Xrotation
					JOINT RightArm
					{
						OFFSET -3.06316 1.13725 -0.10883
						CHANNELS 3 Zrotation Yrotation Xrotation
						JOINT RightForeArm
						{
							OFFSET -4.40431 -0.00000 0.00000
							CHANNELS 3 Zrotation Yrotation Xrotation
							JOINT RightHand
							{
								OFFSET -3.04688 -0.00000 0.00000
								CHANNELS 3 Zrotation Yrotation Xrotation
								JOINT RightFingerBase
								{
									OFFSET 0 0 0
									CHANNELS 3 Zrotation Yrotation Xrotation
									JOINT RightHandIndex1
									{
										OFFSET -0.50049 -0.00000 0.00000
										CHANNELS 3 Zrotation Yrotation Xrotation
										End Site
										{
											OFFSET -0.40351 -0.00000 0.00000
										}
									}
								}
								JOINT RThumb
								{
									OFFSET 0 0 0
									CHANNELS 3 Zrotation Yrotation Xrotation
									End Site
									{
										OFFSET -0.40967 -0.00000 0.40967
									}
								}
							}
						}
					}
				}
			}
		}
	}
}
MOTION
Frames: 11
Frame Time: 0.00689655
0.00 0.00 0.00 0 0 0 0 0 0 -21 0 0 0 0 0 0 0 0 0 0 0 0 0 0 21 0 0 0 0 0 0 0 0 0 0 0 0 0 0 0 0 0 0 0 0 0 0 -16 0 0 21 0 0 11 0 0 0 -8 0 0 0 0 0 0 0 0 0 0 0 0 0 0 0 0 0 0 0 0 8 0 0 0 0 0 0 0 0 0 0 0 0 0 0 0 0 0
0.00 0.00 0.00 -27.9403 -75.1679 32.6047 0.0000 0.0000 0.0000 -7.3025 9.5802 -47.9865 16.2301 19.6558 78.9164 2.2663 -10.9930 -27.0938 0.0304 1.1252 3.0933 0.0000 0.0000 0.0000 15.5564 -31.0761 -46.9065 -13.8501 -19.0679 71.7461 -1.8258 -3.8847 -27.1607 -0.1399 2.4107 -6.6421 3.0834 1.0252 5.3199 2.5195 1.7870 -5.8077 0.7162 0.7250 -9.1227 -2.1377 -5.0228 -17.6905 3.6096 -7.7978 24.6596 0.4898 -3.4071 11.1524 -0.0000 -0.0000 0.0000 -10.5240 -5.2096 37.9362 66.2607 -57.7597 -39.5958 -0.0000 0.0000 -43.0461 46.0620 38.3652 32.7863 -7.1250 0.0000 -0.0000 25.7490 77.6658 19.8814 -0.0000 -0.0000 0.0000 23.7170 1.7717 24.9437 -81.2564 59.7091 -52.4352 0.0000 -0.0000 -19.3823 -48.4545 7.9467 -8.8675 7.1250 -0.0000 -0.0000 -15.1290 -18.3140 -9.9620
0.00 0.00 0.00 -18.0046 -68.2870 22.4753 0.0000 0.0000 0.0000 -9.5105 3.4525 -44.8830 14.5546 19.2737 73.8914 2.1367 -12.1148 -26.3873 0.0669 1.6689 4.5916 0.0000 0.0000 0.0000 11.5403 -25.2013 -40.6159 -13.3410 -18.9018 70.1812 -0.8311 -10.4135 -23.9559 -0.0379 1.2570 -3.4563 4.0461 1.5480 5.0956 2.7236 2.5879 -5.8325 0.2981 1.0626 -8.9846 -3.0159 -6.5300 -16.3602 5.1894 -9.9299 22.4850 0.9357 -4.3230 10.3118 0.0000 0.0000 0.0000 -12.7748 -13.7608 45.1933 91.6139 -59.9902 -61.3976 -0.0000 0.0000 -36.7592 46.7728 36.8319 32.5282 -7.1250 0.0000 -0.0000 27.0403 76.2383 20.1251 0.0000 0.0000 0.0000 22.5102 6.3452 30.9531 -101.4534 59.4985 -69.9023 0.0000 -0.0000 -9.7955 -37.0719 12.6199 -9.3732 7.1250 -0.0000 -0.0000 -6.6600 -14.3800 -4.8307
0.00 0.00 0.00 -9.8527 -59.4681 13.1506 0.0000 0.0000 0.0000 -13.3155 -0.5983 -40.9115 12.8823 18.7392 68.7595 1.6847 -15.2148 -24.0749 0.2219 3.0322 8.3685 0.0000 0.0000 0.0000 5.1115 -11.4217 -35.2584 -16.0787 -19.6273 78.4661 0.2966 -13.6048 -15.2644 -0.7114 -5.3905 15.0258 3.8275 2.0476 6.1197 2.4865 3.2930 -5.3952 0.0445 1.4244 -9.0918 -4.4046 -8.1833 -14.9214 7.3081 -12.1974 19.9665 1.6320 -5.3295 9.4993 -0.0000 -0.0000 0.0000 -15.4895 -23.0759 51.9468 113.0770 -57.8889 -79.8436 -0.0000 0.0000 -28.7867 45.5865 32.6124 28.8153 -7.1250 0.0000 -0.0000 22.6321 71.2667 14.3913 -0.0000 -0.0000 0.0000 20.5465 14.9073 32.9349 -114.2271 57.6617 -80.8166 0.0000 -0.0000 -17.1657 -10.5360 12.7446 -2.3495 7.1250 -0.0000 -0.0000 11.5681 -17.1828 7.7958
0.00 0.00 0.00 -3.9062 -48.0874 6.0549 0.0000 0.0000 0.0000 -17.2588 -3.9085 -37.0511 11.7991 18.3044 65.3505 0.9211 -19.4887 -20.5547 0.7022 5.3560 14.9268 0.0000 0.0000 0.0000 3.1037 1.3228 -36.4723 -22.2861 -19.8742 96.6976 -0.3709 -5.9946 -15.2588 -0.4823 -4.4532 12.3554 1.3910 2.1387 7.0003 1.3940 3.1259 -5.2032 0.2336 1.4687 -9.4612 -5.5378 -9.4633 -14.0726 9.5072 -14.2866 19.7758 2.2786 -6.1804 9.6881 0.0000 -0.0000 0.0000 -19.7641 -30.8002 59.2073 119.7703 -56.3708 -85.4677 -0.0000 0.0000 -17.3449 46.9467 25.5473 24.7783 -7.1250 0.0000 -0.0000 22.8700 63.5564 10.5694 0.0000 -0.0000 0.0000 24.2587 23.8727 31.0510 -114.2603 57.6549 -80.8446 0.0000 -0.0000 -51.3651 24.7351 -3.6945 -1.7004 7.1250 -0.0000 -0.0000 38.4301 -31.0349 16.7472
0.00 0.00 0.00 -0.8398 -28.8108 1.3005 0.0000 0.0000 0.0000 -22.6984 -12.4561 -29.4533 10.7397 17.8053 61.9333 0.7351 -17.4223 -18.3495 1.7773 8.3859 23.8924 0.0000 0.0000 0.0000 11.1721 16.2114 -48.5950 -19.2118 -19.9851 87.6949 -0.7958 -0.4399 -17.0226 -0.2044 2.9109 -8.0308 0.4782 3.0131 8.1714 0.1706 4.1224 -5.2909 -0.7790 1.9587 -10.2222 -6.3370 -10.1353 -13.6613 8.0862 -14.7306 20.5163 1.8696 -6.5585 9.8460 -0.0000 -0.0000 0.0000 -30.9029 -34.3808 72.3889 116.7141 -57.1238 -82.9117 -0.0000 0.0000 -7.9975 51.8983 14.6237 17.8468 -7.1250 0.0000 -0.0000 25.1793 51.1081 4.0054 -0.0000 -0.0000 0.0000 37.1825 31.2551 34.1859 -95.1754 59.8985 -64.4805 0.0000 -0.0000 -91.5279 49.4322 -12.6391 -14.3367 7.1250 -0.0000 -0.0000 50.4930 -31.5083 28.4805
0.00 0.00 0.00 -0.3980 -20.9446 -0.9567 0.0000 0.0000 0.0000 -24.9003 -16.9644 -22.7218 10.1007 17.4661 59.8246 0.7055 -18.8870 -18.8081 2.3028 9.4701 27.2772 0.0000 0.0000 0.0000 16.6945 19.3875 -47.3474 -16.5187 -19.7069 79.7733 0.0720 5.3568 -0.6739 -0.0052 -0.4658 1.2799 -0.3431 3.6054 7.0454 -0.5527 4.7541 -5.3196 -1.1182 2.3039 -9.5831 -6.4959 -10.0600 -13.7920 7.9744 -14.8540 23.1159 1.8020 -6.5549 10.8246 0.0000 0.0000 0.0000 -30.9052 -33.7691 73.4518 116.1847 -57.2438 -82.4667 -0.0000 0.0000 -4.9876 52.9960 10.3608 13.4215 -7.1250 0.0000 -0.0000 24.4475 45.3444 0.2213 0.0000 0.0000 0.0000 50.7639 35.1348 32.2939 -74.0973 59.0225 -46.2730 0.0000 -0.0000 -96.7503 49.5667 -13.0944 -14.8898 7.1250 -0.0000 -0.0000 50.8264 -31.9449 27.8611
0.00 0.00 0.00 -3.7619 -22.8390 -0.3679 0.0000 0.0000 0.0000 -20.3003 -8.2591 -21.7988 8.6867 16.6019 55.0003 -0.0153 -22.4763 -15.7287 2.2359 9.3411 26.8683 0.0000 0.0000 0.0000 20.8804 17.1036 -51.9875 -13.6242 -18.9961 71.0534 -0.0168 1.1766 3.1782 -0.2412 -3.1607 8.7265 -3.2713 3.5424 8.2392 -0.3628 4.3085 -5.0952 0.7031 2.2855 -10.3049 -5.1614 -9.6024 -14.4756 9.8038 -14.8808 22.0637 2.2019 -6.2696 10.6357 0.0000 0.0000 0.0000 -28.8014 -34.8735 71.5382 119.3239 -56.4874 -85.0958 -0.0000 0.0000 -6.7426 54.8313 8.4879 11.8312 -7.1250 0.0000 -0.0000 25.4112 42.9408 -1.3888 0.0000 0.0000 0.0000 65.1548 53.2577 13.5150 -51.9879 53.7665 -27.7698 0.0000 -0.0000 -98.1770 27.9006 -4.8999 -2.5895 7.1250 -0.0000 -0.0000 40.6590 -31.5925 17.6239
0.00 0.00 0.00 -6.0409 -27.9229 0.5685 0.0000 0.0000 0.0000 -18.1720 -2.7671 -21.1215 7.6920 15.8880 51.4455 0.1120 -21.0876 -15.7163 1.9555 8.7727 25.0868 0.0000 0.0000 0.0000 18.8280 14.2613 -53.6730 -8.4009 -16.4063 53.9942 -0.5199 -0.0444 13.6092 -0.4351 -4.2328 11.7326 -3.9360 3.5802 9.2403 -0.0527 4.2621 -4.8788 1.3579 2.3192 -10.7429 -4.4493 -9.3737 -14.2713 10.5407 -14.8973 21.6161 2.3534 -6.1790 10.4497 0.0000 -0.0000 0.0000 -28.4879 -36.1188 71.3837 118.7608 -56.6312 -84.6259 -0.0000 0.0000 -7.1471 54.1228 7.8373 10.6768 -7.1250 0.0000 -0.0000 24.4250 41.8150 -2.0562 0.0000 -0.0000 0.0000 59.8481 61.3726 -1.1168 -47.5053 51.9384 -24.1956 0.0000 -0.0000 -97.6368 8.7492 -2.1605 -0.3324 7.1250 -0.0000 -0.0000 27.4771 -31.1847 10.3713
0.00 0.00 0.00 -8.8243 -31.7525 2.6241 0.0000 0.0000 0.0000 -16.1463 0.8527 -20.3106 6.6688 15.0465 47.6102 0.1611 -19.6036 -15.1209 1.9432 8.7468 25.0064 0.0000 0.0000 0.0000 13.5336 12.0990 -51.8619 -3.9034 -12.0308 35.8409 -1.8697 -5.0203 24.7466 -0.9850 -6.3172 17.7076 -3.4023 3.1989 9.8312 0.3338 3.8356 -5.2278 1.5155 2.1014 -11.4501 -3.6868 -8.6826 -14.4817 10.9820 -14.3030 22.0073 2.4707 -5.7845 10.5660 0.0000 -0.0000 0.0000 -29.7548 -35.8227 72.4326 118.6616 -56.6562 -84.5430 -0.0000 0.0000 -7.7115 53.1827 7.1518 9.4428 -7.1250 0.0000 -0.0000 23.2529 40.6194 -2.6779 0.0000 -0.0000 0.0000 44.4836 64.0752 -21.2578 -44.3778 50.4600 -21.7578 0.0000 -0.0000 -99.1020 -12.7505 -0.5804 0.1313 7.1250 -0.0000 -0.0000 10.9073 -30.4728 3.9330
0.00 0.00 0.00 -14.5121 -33.1158 7.4822 0.0000 0.0000 0.0000 -11.9494 2.8483 -19.1899 5.3934 13.8136 42.4958 0.3073 -17.5764 -15.0808 1.5926 7.9602 22.5934 0.0000 0.0000 0.0000 -6.3209 23.6628 -40.4261 -1.5426 -7.8401 22.2295 2.1158 -31.6035 9.5315 -2.1419 -9.1556 26.2834 -1.7614 1.9774 8.5770 2.0269 2.6156 -5.7226 2.7072 1.4795 -11.1757 -2.2118 -7.4277 -14.9450 10.7429 -12.8548 22.1657 2.3584 -5.0090 10.4727 0.0000 0.0000 0.0000 -32.4261 -35.6127 75.4637 118.7294 -56.6391 -84.5997 -0.0000 0.0000 -7.4699 53.0367 6.9669 9.1562 -7.1250 0.0000 -0.0000 23.0438 40.3183 -2.8337 0.0000 0.0000 0.0000 19.7626 59.6699 -53.7703 -41.0512 48.6805 -19.2250 0.0000 -0.0000 -100.6240 -30.9427 1.5557 -0.9324 7.1250 -0.0000 -0.0000 -3.3800 -28.1605 -1.3869
